<svg width="15" height="10" viewBox="0 0 15 10" fill="none" xmlns="http://www.w3.org/2000/svg">
<path d="M13.8176 4.77065L13.8176 4.77062L13.8141 4.76712L9.94538 0.904616L9.93441 0.893657L9.92216 0.884139C9.79951 0.788817 9.64627 0.741558 9.49123 0.75124C9.33619 0.760922 9.19003 0.826879 9.08018 0.93672C8.97034 1.04656 8.90439 1.19273 8.8947 1.34777C8.88502 1.5028 8.93228 1.65604 9.0276 1.7787L9.03718 1.79102L9.04822 1.80206L11.8277 4.58154H1.6375C1.46842 4.58154 1.30627 4.6487 1.18672 4.76826C1.06717 4.88781 1 5.04996 1 5.21904C1 5.38811 1.06717 5.55026 1.18672 5.66982C1.30627 5.78937 1.46842 5.85654 1.6375 5.85654H11.8214L9.05789 8.62009C8.99266 8.67373 8.93869 8.73983 8.89918 8.81459C8.85693 8.89452 8.83216 8.98253 8.82652 9.07277C8.82089 9.16301 8.83451 9.25341 8.86649 9.33798C8.89847 9.42255 8.94807 9.49935 9.012 9.56328L9.18878 9.3865L9.01201 9.56328C9.07594 9.62721 9.15274 9.67682 9.23731 9.70879C9.32188 9.74077 9.41228 9.75439 9.50252 9.74876L9.48694 9.49925L9.50252 9.74876C9.59276 9.74312 9.68077 9.71836 9.7607 9.67611C9.83546 9.63659 9.90156 9.58263 9.95519 9.5174L13.8143 5.65831L13.8143 5.65834L13.8176 5.65492C13.932 5.53614 13.9958 5.37767 13.9958 5.21279C13.9958 5.0479 13.932 4.88943 13.8176 4.77065Z" fill="white" stroke="white" stroke-width="0.5"/>
</svg>
